<?xml version="1.0" encoding="utf-8"?>
<svg version="1.1" xmlns:xlink="http://www.w3.org/1999/xlink" width="214px" height="34px" xmlns="http://www.w3.org/2000/svg">
  <g transform="matrix(1 0 0 1 -206 -256 )">
    <path d="M 167.208044 13.9982108209366  C 167.208044 13.4544629421488  166.77876 13.0016262699725  166.249324 13.0016262699725  L 165.188526 13.0016262699725  C 164.669362 13.0016262699725  164.23002 13.4478004187328  164.23002 13.9982108209366  L 164.23002 20.0017891790633  C 164.23002 20.5455370578512  164.659304 20.9983737300275  165.188526 20.9983737300275  L 166.249324 20.9983737300275  C 166.768488 20.9983737300275  167.208044 20.5521995812672  167.208044 20.0017891790633  L 167.208044 13.9982108209366  Z M 175 11.9682903801653  C 175.187248 11.4344288264463  174.758178 11.0078124077135  174.228742 11.0078124077135  L 173.167944 11.0078124077135  C 172.64878 11.0078124077135  172.209224 11.4378675482093  172 11.9682903801653  L 172 22.0317096198347  C 172.209224 22.5655711735538  172.638508 22.9921875922865  173.167944 22.9921875922865  L 174.228742 22.9921875922865  C 174.747906 22.9921875922865  175.187248 22.5621324517907  175 22.0317096198347  L 175 11.9682903801653  Z M 183 6.02574933333341  C 183.145266 5.47082560881546  182.715982 5.01605465564739  182.186546 5.01605465564739  L 181.125748 5.01605465564739  C 180.60637 5.01605465564739  180.167242 5.46803164738299  180 6.02574933333341  L 180 28.9738440991734  C 180.167242 29.5287678236915  180.596526 29.9835387768595  181.125748 29.9835387768595  L 182.186546 29.9835387768595  C 182.70571 29.9835387768595  183.145266 29.531561785124  183 28.9738440991734  L 183 6.02574933333341  Z M 190 1.00521555922859  C 190.107756 0.461252760330524  189.678472 0.00648180716245861  189.149036 0.00648180716245861  L 188.088238 0.00648180716245861  C 187.569074 0.00648180716245861  187.129732 0.453515636363647  187 1.00521555922859  L 187 32.9945695206612  C 187.129732 33.5385323195593  187.559016 33.9933032727272  188.088238 33.9933032727272  L 189.149036 33.9933032727272  C 189.6682 33.9933032727272  190.107756 33.5462694435262  190 32.9945695206612  L 190 1.00521555922859  Z M 198 6.02574933333341  C 198.06556 5.47082560881546  197.63649 5.01605465564739  197.10684 5.01605465564739  L 196.046042 5.01605465564739  C 195.526878 5.01605465564739  195.087536 5.46803164738299  195 6.02574933333341  L 195 28.9738440991734  C 195.087536 29.5287678236915  195.51682 29.9835387768595  196.046042 29.9835387768595  L 197.10684 29.9835387768595  C 197.626218 29.9835387768595  198.06556 29.531561785124  198 28.9738440991734  L 198 6.02574933333341  Z M 206 11.9627024573003  C 206.05097 11.4288409035813  205.617406 11.0022244848485  205.082406 11.0022244848485  L 204.010908 11.0022244848485  C 203.486394 11.0022244848485  203.042344 11.4322796253443  203 11.9627024573003  L 203 22.0261216969698  C 203.042344 22.5599832506887  203.475908 22.9863847493113  204.010908 22.9863847493113  L 205.082406 22.9863847493113  C 205.60692 22.9863847493113  206.05097 22.5565445289256  206 22.0261216969698  L 206 11.9627024573003  Z M 214 13.9982108209366  C 214 13.4544629421488  213.570716 13.0016262699725  213.04128 13.0016262699725  L 211.980482 13.0016262699725  C 211.461318 13.0016262699725  211.021762 13.4478004187328  211.021762 13.9982108209366  L 211.021762 20.0017891790633  C 211.021762 20.5455370578512  211.451046 20.9983737300275  211.980482 20.9983737300275  L 213.04128 20.9983737300275  C 213.560444 20.9983737300275  214 20.5521995812672  214 20.0017891790633  L 214 13.9982108209366  Z M 112.464704 13.9982108209366  C 112.464704 13.4544629421488  112.03542 13.0016262699725  111.505984 13.0016262699725  L 110.445186 13.0016262699725  C 109.926022 13.0016262699725  109.48668 13.4478004187328  109.48668 13.9982108209366  L 109.48668 20.0017891790633  C 109.48668 20.5455370578512  109.915964 20.9983737300275  110.445186 20.9983737300275  L 111.505984 20.9983737300275  C 112.025148 20.9983737300275  112.464704 20.5521995812672  112.464704 20.0017891790633  L 112.464704 13.9982108209366  Z M 120 11.9682903801653  C 120.443908 11.4344288264463  120.014838 11.0078124077135  119.485402 11.0078124077135  L 118.424604 11.0078124077135  C 117.90544 11.0078124077135  117.465884 11.4378675482093  117 11.9682903801653  L 117 22.0317096198347  C 117.465884 22.5655711735538  117.895168 22.9921875922865  118.424604 22.9921875922865  L 119.485402 22.9921875922865  C 120.004566 22.9921875922865  120.443908 22.5621324517907  120 22.0317096198347  L 120 11.9682903801653  Z M 128 6.02574933333341  C 128.401926 5.47082560881546  127.972642 5.01605465564739  127.443206 5.01605465564739  L 126.382408 5.01605465564739  C 125.863244 5.01605465564739  125.423902 5.46803164738299  125 6.02574933333341  L 125 28.9738440991734  C 125.423902 29.5287678236915  125.853186 29.9835387768595  126.382408 29.9835387768595  L 127.443206 29.9835387768595  C 127.96237 29.9835387768595  128.401926 29.531561785124  128 28.9738440991734  L 128 6.02574933333341  Z M 135 1.00521555922859  C 135.364416 0.461252760330524  134.935132 0.00648180716245861  134.40591 0.00648180716245861  L 133.345112 0.00648180716245861  C 132.825948 0.00648180716245861  132.386606 0.453515636363647  132 1.00521555922859  L 132 32.9945695206612  C 132.386606 33.5385323195593  132.81589 33.9933032727272  133.345112 33.9933032727272  L 134.40591 33.9933032727272  C 134.925074 33.9933032727272  135.36463 33.5462694435262  135 32.9945695206612  L 135 1.00521555922859  Z M 143 6.02574933333341  C 143.32222 5.47082560881546  142.89315 5.01605465564739  142.3635 5.01605465564739  L 141.302702 5.01605465564739  C 140.783538 5.01605465564739  140.344196 5.46803164738299  140 6.02574933333341  L 140 28.9738440991734  C 140.344196 29.5287678236915  140.77348 29.9835387768595  141.302702 29.9835387768595  L 142.3635 29.9835387768595  C 142.882878 29.9835387768595  143.32222 29.531561785124  143 28.9738440991734  L 143 6.02574933333341  Z M 151 11.9627024573003  C 151.30763 11.4288409035813  150.874066 11.0022244848485  150.339066 11.0022244848485  L 149.267568 11.0022244848485  C 148.743054 11.0022244848485  148.299004 11.4322796253443  148 11.9627024573003  L 148 22.0261216969698  C 148.299004 22.5599832506887  148.732568 22.9863847493113  149.267568 22.9863847493113  L 150.339066 22.9863847493113  C 150.86358 22.9863847493113  151.30763 22.5565445289256  151 22.0261216969698  L 151 11.9627024573003  Z M 159.25666 13.9982108209366  C 159.25666 13.4544629421488  158.827376 13.0016262699725  158.29794 13.0016262699725  L 157.237142 13.0016262699725  C 156.717978 13.0016262699725  156.278422 13.4478004187328  156.278422 13.9982108209366  L 156.278422 20.0017891790633  C 156.278422 20.5455370578512  156.707706 20.9983737300275  157.237142 20.9983737300275  L 158.29794 20.9983737300275  C 158.817104 20.9983737300275  159.25666 20.5521995812672  159.25666 20.0017891790633  L 159.25666 13.9982108209366  Z M 57.721364 13.9982108209366  C 57.721364 13.4544629421488  57.29208 13.0016262699725  56.7626439999999 13.0016262699725  L 55.701846 13.0016262699725  C 55.182682 13.0016262699725  54.74334 13.4478004187328  54.74334 13.9982108209366  L 54.74334 20.0017891790633  C 54.74334 20.5455370578512  55.172624 20.9983737300275  55.701846 20.9983737300275  L 56.7626439999999 20.9983737300275  C 57.282022 20.9983737300275  57.721364 20.5521995812672  57.721364 20.0017891790633  L 57.721364 13.9982108209366  Z M 66 11.9682903801653  C 65.700568 11.4344288264463  65.271498 11.0078124077135  64.742062 11.0078124077135  L 63.681264 11.0078124077135  C 63.1621 11.0078124077135  62.722544 11.4378675482093  63 11.9682903801653  L 63 22.0317096198347  C 62.722544 22.5655711735538  63.151828 22.9921875922865  63.681264 22.9921875922865  L 64.742062 22.9921875922865  C 65.261226 22.9921875922865  65.700568 22.5621324517907  66 22.0317096198347  L 66 11.9682903801653  Z M 74 6.02574933333341  C 73.658586 5.47082560881546  73.229302 5.01605465564739  72.699866 5.01605465564739  L 71.6390680000001 5.01605465564739  C 71.119904 5.01605465564739  70.680562 5.46803164738299  71 6.02574933333341  L 71 28.9738440991734  C 70.680562 29.5287678236915  71.109846 29.9835387768595  71.6390680000001 29.9835387768595  L 72.699866 29.9835387768595  C 73.21903 29.9835387768595  73.658586 29.531561785124  74 28.9738440991734  L 74 6.02574933333341  Z M 81 1.00521555922859  C 80.621076 0.461252760330524  80.192006 0.00648180716245861  79.66257 0.00648180716245861  L 78.601772 0.00648180716245861  C 78.0826080000001 0.00648180716245861  77.643266 0.453515636363647  78 1.00521555922859  L 78 32.9945695206612  C 77.643266 33.5385323195593  78.07255 33.9933032727272  78.601772 33.9933032727272  L 79.66257 33.9933032727272  C 80.181948 33.9933032727272  80.62129 33.5462694435262  81 32.9945695206612  L 81 1.00521555922859  Z M 89 6.02574933333341  C 88.57888 5.47082560881546  88.14981 5.01605465564739  87.6201600000001 5.01605465564739  L 86.559362 5.01605465564739  C 86.040198 5.01605465564739  85.600856 5.46803164738299  86 6.02574933333341  L 86 28.9738440991734  C 85.600856 29.5287678236915  86.03014 29.9835387768595  86.559362 29.9835387768595  L 87.6201600000001 29.9835387768595  C 88.139538 29.9835387768595  88.57888 29.531561785124  89 28.9738440991734  L 89 6.02574933333341  Z M 97 11.9627024573003  C 96.56429 11.4288409035813  96.130726 11.0022244848485  95.595726 11.0022244848485  L 94.5242280000001 11.0022244848485  C 93.999714 11.0022244848485  93.555664 11.4322796253443  94 11.9627024573003  L 94 22.0261216969698  C 93.555664 22.5599832506887  93.989228 22.9863847493113  94.5242280000001 22.9863847493113  L 95.595726 22.9863847493113  C 96.1202400000001 22.9863847493113  96.56429 22.5565445289256  97 22.0261216969698  L 97 11.9627024573003  Z M 104.51332 13.9982108209366  C 104.51332 13.4544629421488  104.084036 13.0016262699725  103.5546 13.0016262699725  L 102.493802 13.0016262699725  C 101.974638 13.0016262699725  101.535082 13.4478004187328  101.535082 13.9982108209366  L 101.535082 20.0017891790633  C 101.535082 20.5455370578512  101.964366 20.9983737300275  102.493802 20.9983737300275  L 103.5546 20.9983737300275  C 104.073764 20.9983737300275  104.51332 20.5521995812672  104.51332 20.0017891790633  L 104.51332 13.9982108209366  Z M 2.978024 13.9982108209366  C 2.978024 13.4544629421488  2.54895399999998 13.0016262699725  2.01930400000001 13.0016262699725  L 0.958506 13.0016262699725  C 0.439341999999982 13.0016262699725  0 13.4478004187328  0 13.9982108209366  L 0 20.0017891790633  C 0 20.5455370578512  0.429284000000024 20.9983737300275  0.958506 20.9983737300275  L 2.01930400000001 20.9983737300275  C 2.53846799999999 20.9983737300275  2.978024 20.5521995812672  2.978024 20.0017891790633  L 2.978024 13.9982108209366  Z M 11 11.9682903801653  C 10.957228 11.4344288264463  10.528158 11.0078124077135  9.99872200000002 11.0078124077135  L 8.93792400000001 11.0078124077135  C 8.41854599999999 11.0078124077135  7.97920399999998 11.4378675482093  8 11.9682903801653  L 8 22.0317096198347  C 7.97920399999998 22.5655711735538  8.40848800000001 22.9921875922865  8.93792400000001 22.9921875922865  L 9.99872200000002 22.9921875922865  C 10.517886 22.9921875922865  10.957228 22.5621324517907  11 22.0317096198347  L 11 11.9682903801653  Z M 19 6.02574933333341  C 18.915246 5.47082560881546  18.485962 5.01605465564739  17.956526 5.01605465564739  L 16.895728 5.01605465564739  C 16.376564 5.01605465564739  15.937222 5.46803164738299  16 6.02574933333341  L 16 28.9738440991734  C 15.937222 29.5287678236915  16.366506 29.9835387768595  16.895728 29.9835387768595  L 17.956526 29.9835387768595  C 18.47569 29.9835387768595  18.915246 29.531561785124  19 28.9738440991734  L 19 6.02574933333341  Z M 26 1.00521555922859  C 25.87795 0.461252760330524  25.448666 0.00648180716245861  24.91923 0.00648180716245861  L 23.858432 0.00648180716245861  C 23.339268 0.00648180716245861  22.899926 0.453515636363647  23 1.00521555922859  L 23 32.9945695206612  C 22.899926 33.5385323195593  23.328996 33.9933032727272  23.858432 33.9933032727272  L 24.91923 33.9933032727272  C 25.438394 33.9933032727272  25.87795 33.5462694435262  26 32.9945695206612  L 26 1.00521555922859  Z M 34 6.02574933333341  C 33.835754 5.47082560881546  33.40647 5.01605465564739  32.877034 5.01605465564739  L 31.816236 5.01605465564739  C 31.297072 5.01605465564739  30.85773 5.46803164738299  31 6.02574933333341  L 31 28.9738440991734  C 30.85773 29.5287678236915  31.287014 29.9835387768595  31.816236 29.9835387768595  L 32.877034 29.9835387768595  C 33.396412 29.9835387768595  33.835754 29.531561785124  34 28.9738440991734  L 34 6.02574933333341  Z M 42 11.9627024573003  C 41.82095 11.4288409035813  41.387386 11.0022244848485  40.852386 11.0022244848485  L 39.780888 11.0022244848485  C 39.256374 11.0022244848485  38.812538 11.4322796253443  39 11.9627024573003  L 39 22.0261216969698  C 38.812538 22.5599832506887  39.246102 22.9863847493113  39.780888 22.9863847493113  L 40.852386 22.9863847493113  C 41.3769000000001 22.9863847493113  41.82095 22.5565445289256  42 22.0261216969698  L 42 11.9627024573003  Z M 49.76998 13.9982108209366  C 49.76998 13.4544629421488  49.340696 13.0016262699725  48.81126 13.0016262699725  L 47.750462 13.0016262699725  C 47.231298 13.0016262699725  46.791742 13.4478004187328  46.791742 13.9982108209366  L 46.791742 20.0017891790633  C 46.791742 20.5455370578512  47.221026 20.9983737300275  47.750462 20.9983737300275  L 48.81126 20.9983737300275  C 49.330424 20.9983737300275  49.76998 20.5521995812672  49.76998 20.0017891790633  L 49.76998 13.9982108209366  Z " fill-rule="nonzero" fill="#009999" stroke="none" fill-opacity="0.207843137254902" transform="matrix(1 0 0 1 206 256 )" />
  </g>
</svg>