<?xml version="1.0" encoding="utf-8"?>
<svg version="1.1" xmlns:xlink="http://www.w3.org/1999/xlink" width="58px" height="58px" xmlns="http://www.w3.org/2000/svg">
  <g transform="matrix(1 0 0 1 -284 -222 )">
    <path d="M 0 29  C 0 12.7599999999999  12.76 0  29 0  C 45.24 0  58 12.7599999999999  58 29  C 58 45.2400000000001  45.24 58  29 58  C 12.76 58  0 45.2400000000001  0 29  Z M 46.6829268292683 29  C 46.6829268292683 19.0975609756098  38.9024390243902 11.3170731707318  29 11.3170731707318  C 19.0975609756098 11.3170731707318  11.3170731707317 19.0975609756098  11.3170731707317 29  C 11.3170731707317 38.9024390243902  19.0975609756098 46.6829268292683  29 46.6829268292683  C 38.9024390243902 46.6829268292683  46.6829268292683 38.9024390243902  46.6829268292683 29  Z M 36.2856376098285 20.1983334905181  C 35.6409600734138 19.6631825759764  35.4797907109123 18.7163771032984  36.0035911768461 18.0165643655023  C 36.527391664382 17.3579170724846  37.454115612177 17.1932552713002  38.1390854838165 17.7284061637719  C 41.5639348420143 20.404160758551  43.4979674296563 24.3972098952253  43.4979674296563 28.7607481673273  C 43.4979674296563 33.0831209725806  41.6042271988413 37.0350046644763  38.2599625326953 39.7107592371854  C 37.6152849962807 40.245910151727  36.6482687132607 40.1224137953213  36.1244682257249 39.4637665243738  C 35.6006677381889 38.8051192313561  35.7215447654656 37.8171483138997  36.3662223018803 37.2819973993579  C 38.9449324043349 35.2237246307477  40.4357491964927 32.0951500551242  40.4357491748908 28.7607481673273  C 40.4357491748908 25.3851808347519  38.9449324043349 22.2566062370582  36.2856376098285 20.1983334905181  Z " fill-rule="nonzero" fill="#ffffff" stroke="none" transform="matrix(1 0 0 1 284 222 )" />
  </g>
</svg>